<?xml version="1.0" encoding="UTF-8"?>
<svg width="512" height="512" viewBox="0 0 512 512" fill="none" xmlns="http://www.w3.org/2000/svg">
  <path d="M256 64C150.131 64 64 150.131 64 256C64 361.869 150.131 448 256 448C361.869 448 448 361.869 448 256C448 150.131 361.869 64 256 64ZM256 416C167.635 416 96 344.365 96 256C96 167.635 167.635 96 256 96C344.365 96 416 167.635 416 256C416 344.365 344.365 416 256 416Z" fill="#0070c9"/>
  <path d="M256 128C185.307 128 128 185.307 128 256C128 326.693 185.307 384 256 384C326.693 384 384 326.693 384 256C384 185.307 326.693 128 256 128ZM256 352C203.065 352 160 308.935 160 256C160 203.065 203.065 160 256 160C308.935 160 352 203.065 352 256C352 308.935 308.935 352 256 352Z" fill="#0070c9"/>
  <path d="M256 192C221.888 192 194.745 214.745 188.235 245.49L224 256L256 224L288 256L323.765 245.49C317.255 214.745 290.112 192 256 192Z" fill="#0070c9"/>
  <path d="M256 320C290.112 320 317.255 297.255 323.765 266.51L288 256L256 288L224 256L188.235 266.51C194.745 297.255 221.888 320 256 320Z" fill="#0070c9"/>
</svg>
